<svg width="1920" height="78" viewBox="0 0 1920 78" fill="none" xmlns="http://www.w3.org/2000/svg">
<path opacity="0.25" d="M0 0V39.6837C76.464 58.7154 165.744 67.2626 252.8 63.6877C365.376 59.0841 470.928 35.1315 583.68 31.5395C701.824 27.8017 819.744 46.0105 932.8 61.7674C1043.63 77.1985 1154.08 83.0966 1267.84 72.9806C1325.68 67.8369 1379.6 57.6867 1434.96 47.8279C1583.18 21.4321 1780.8 -12.2506 1920 44.9817V0H0Z" fill="#5758E3"/>
<path d="M0 0V4.83055C239.888 50.6221 502.544 61.1926 761.328 36.5251C830.128 29.97 896.096 19.2621 965.504 13.8224C1059.9 6.41785 1145.47 24.3243 1230.4 44.1956C1324.69 66.2549 1417.6 81.716 1521.92 77.2201C1660.37 71.2141 1797.86 38.0009 1920 4.45303V0H0Z" fill="#5758E3"/>
</svg>
