<svg width="1918" height="41" viewBox="0 0 1918 41" fill="none" xmlns="http://www.w3.org/2000/svg">
<path d="M23.9952 30.8734L48.0028 40.4715L71.998 30.8734L96.0056 40.4715L120.001 30.8734L143.996 40.4715L168.004 30.8734L191.999 40.4715L215.994 30.8734L240.002 40.4715L263.997 30.8734L288.004 40.4715L312 30.8734L335.995 40.4715L360.002 30.8735L383.998 40.4715L408.005 30.8735L432 40.4715L455.996 30.8735L480.003 40.4716L503.998 30.8735L527.994 40.4716L552.001 30.8735L575.996 40.4716L600.004 30.8735L623.999 40.4716L647.994 30.8735L672.002 40.4716L695.997 30.8735L720.005 40.4716L744 30.8735L767.995 40.4716L792.003 30.8735L815.998 40.4716L840.005 30.8735L864.001 40.4716L887.996 30.8735L912.003 40.4716L935.999 30.8735L959.994 40.2624L984.001 30.8735L1008 40.4716L1032 30.8735L1056 40.4716L1079.99 30.8735L1104 40.4716L1128 30.8735L1152 40.4716L1176 30.8735L1200 40.4716L1224 30.8735L1248 40.4716L1272.01 30.8735L1296 40.4716L1320 30.8735L1344 40.4716L1368 30.8735L1391.99 40.4716L1416 30.8735L1440 40.4716L1464 30.8735L1488 40.4716L1511.99 30.8736L1536 40.4716L1560 30.8736L1584.01 40.4717L1608 30.8736L1632 40.4717L1656 30.8736L1680 40.4717L1703.99 30.8736L1728 40.4717L1752 30.8736L1776 40.4717L1800 30.8736L1823.99 40.4717L1848 30.8736L1872 40.4717L1896 30.8736L1920 40.2625L1920 -0.000274658L959.994 -0.000358585L3.53817e-06 -0.00044251L1.82879e-08 40.2623L23.9952 30.8734Z" fill="#EFF1F2"/>
</svg>
