<svg width="1913" height="41" viewBox="0 0 1913 41" fill="none" xmlns="http://www.w3.org/2000/svg">
<path d="M1896 9.59826L1872 0.000163655L1848 9.59825L1823.99 0.000159459L1800 9.59825L1776 0.000155263L1752 9.59825L1728 0.000151067L1704.01 9.59824L1680 0.00014687L1656 9.59824L1632 0.000142674L1608 9.59823L1584.01 0.000138478L1560 9.59823L1536 0.000134282L1511.99 9.59823L1488 0.000130085L1464 9.59822L1440 0.000125889L1416 9.59822L1392.01 0.000121693L1368 9.59821L1344 0.000117497L1320 9.59821L1296 0.0001133L1272.01 9.5982L1248 0.000109103L1224 9.5982L1200 0.000104907L1176 9.5982L1152 0.000100711L1128 9.59819L1104 9.65149e-05L1079.99 9.59819L1056 9.23184e-05L1032 9.59818L1008 8.81219e-05L984.001 9.59818L960.006 0.209273L935.999 9.59817L912.003 7.97299e-05L887.996 9.59817L864.001 7.55333e-05L840.005 9.59817L815.998 7.13368e-05L792.003 9.59816L767.995 6.71403e-05L744 9.59816L720.005 6.29448e-05L695.997 9.59815L672.002 5.87483e-05L647.994 9.59815L623.999 5.45517e-05L600.004 9.59815L575.996 5.03552e-05L552.001 9.59814L528.006 4.61597e-05L503.998 9.59814L480.003 4.19632e-05L455.996 9.59813L432 3.77667e-05L408.005 9.59813L383.998 3.35701e-05L360.002 9.59812L335.995 2.93736e-05L312 9.59812L288.004 2.51781e-05L263.997 9.59812L240.002 2.09816e-05L216.006 9.59811L191.999 1.67851e-05L168.004 9.59811L143.996 1.25885e-05L120.001 9.5981L96.0055 8.39307e-06L71.998 9.5981L48.0028 4.19654e-06L23.9952 9.5981L-1.82879e-08 0.209189L-3.53817e-06 40.472L960.006 40.472L1920 40.4721L1920 0.209357L1896 9.59826Z" fill="#EFF1F2" />
</svg>
