<svg width="1920" height="204" viewBox="0 0 1920 204" fill="none" xmlns="http://www.w3.org/2000/svg">
<path opacity="0.25" d="M0.00683594 204.834V100.628C104.124 50.6516 225.692 28.2075 344.231 37.5948C497.52 49.6836 641.244 112.581 794.773 122.014C955.643 131.829 1116.21 84.014 1270.15 42.6375C1421.06 2.11636 1571.46 -13.3717 1726.36 13.1921C1805.11 26.6992 1878.53 53.3531 1953.92 79.2415C2155.74 148.555 2424.83 237.004 2614.37 86.7154V204.834H0.00683594Z" fill="#F9FAFB"/>
<path d="M0.00683594 204.834V192.16C326.65 72.0153 684.294 44.2808 1036.67 109.002C1130.35 126.201 1220.17 154.296 1314.68 168.568C1443.22 187.996 1559.73 141.014 1675.38 88.8766C1803.76 30.9989 1930.28 -9.56721 2072.32 2.22893C2260.84 17.9871 2448.05 105.13 2614.37 193.151V204.834H0.00683594Z" fill="url(#paint0_linear_692_434)"/>
<defs>
<linearGradient id="paint0_linear_692_434" x1="-1.36877e-05" y1="315.305" x2="1921" y2="315.305" gradientUnits="userSpaceOnUse">
<stop offset="0.245458" stop-color="#5758E3"/>
<stop offset="1" stop-color="#6CABED"/>
</linearGradient>
</defs>
</svg>
