<svg width="1920" height="132" viewBox="0 0 1920 132" fill="none" xmlns="http://www.w3.org/2000/svg">
<path opacity="0.25" d="M1920 131.371L1920 76.0825C1843.54 49.5668 1754.26 37.6586 1667.2 42.6393C1554.62 49.0532 1449.07 82.4248 1336.32 87.4294C1218.18 92.637 1100.26 67.2679 987.2 45.3148C876.368 23.8156 765.92 15.5981 652.16 29.6921C594.32 36.8585 540.4 51.0002 485.04 64.7358C336.816 101.511 139.2 148.439 -5.47881e-06 68.7013L0 131.372L1920 131.371Z" fill="#F9FAFB"/>
<path opacity="0.5" d="M1920 131.371L1920 112.488C1899.2 87.274 1875.78 63.4577 1843.7 45.3147C1760.94 -1.52969 1656 -1.20719 1560.67 21.9881C1510.83 34.1113 1464.53 53.1261 1417.2 69.5253C1351.73 92.2189 1281.63 124.468 1207.87 128.851C1149.86 132.255 1094.43 117.6 1050.11 91.1559C999.28 60.8301 950.4 17.103 884.304 3.96464C819.6 -8.92295 754.144 11.9552 693.696 32.9647C633.248 53.9742 573.44 79.5464 506.624 84.3837C411.056 91.371 325.376 57.0558 236.384 37.9932C188.064 27.6497 141.984 30.6237 97.04 46.9512C61.152 59.9582 20.24 79.1164 -2.23872e-06 105.764L0 131.372L1920 131.371Z" fill="#F9FAFB"/>
<path d="M1920 131.371L1920 124.647C1680.11 60.9014 1417.46 46.1864 1158.67 80.5255C1089.87 89.6507 1023.9 104.557 954.496 112.129C860.096 122.437 774.528 97.5099 689.6 69.8476C595.312 39.1396 502.4 17.6164 398.08 23.8751C259.632 32.2359 122.144 78.4712 -5.41929e-07 125.172L0 131.371L1920 131.371Z" fill="#F9FAFB"/>
</svg>
