<svg width="1920" height="41" viewBox="0 0 1920 41" fill="none" xmlns="http://www.w3.org/2000/svg">
<path d="M23.9952 9.59826L48.0028 0.000163655L71.998 9.59825L96.0056 0.000159459L120.001 9.59825L143.996 0.000155263L168.004 9.59825L191.999 0.000151067L215.994 9.59824L240.002 0.00014687L263.997 9.59824L288.004 0.000142674L312 9.59823L335.995 0.000138478L360.002 9.59823L383.998 0.000134282L408.005 9.59823L432 0.000130085L455.996 9.59822L480.003 0.000125889L503.998 9.59822L527.994 0.000121693L552.001 9.59821L575.996 0.000117497L600.004 9.59821L623.999 0.0001133L647.994 9.5982L672.002 0.000109103L695.997 9.5982L720.005 0.000104907L744 9.5982L767.995 0.000100711L792.003 9.59819L815.998 9.65149e-05L840.005 9.59819L864.001 9.23184e-05L887.996 9.59818L912.003 8.81219e-05L935.999 9.59818L959.994 0.209273L984.001 9.59817L1008 7.97299e-05L1032 9.59817L1056 7.55333e-05L1079.99 9.59817L1104 7.13368e-05L1128 9.59816L1152 6.71403e-05L1176 9.59816L1200 6.29448e-05L1224 9.59815L1248 5.87483e-05L1272.01 9.59815L1296 5.45517e-05L1320 9.59815L1344 5.03552e-05L1368 9.59814L1391.99 4.61597e-05L1416 9.59814L1440 4.19632e-05L1464 9.59813L1488 3.77667e-05L1511.99 9.59813L1536 3.35701e-05L1560 9.59812L1584.01 2.93736e-05L1608 9.59812L1632 2.51781e-05L1656 9.59812L1680 2.09816e-05L1703.99 9.59811L1728 1.67851e-05L1752 9.59811L1776 1.25885e-05L1800 9.5981L1823.99 8.39307e-06L1848 9.5981L1872 4.19654e-06L1896 9.5981L1920 0.209189L1920 40.472L959.994 40.472L3.53817e-06 40.4721L1.82879e-08 0.209357L23.9952 9.59826Z" fill="#F9FAFB"/>
</svg>
