<svg width="1920" height="78" viewBox="0 0 1920 78" fill="none" xmlns="http://www.w3.org/2000/svg">
<g opacity="0.25">
<path d="M0 78V38.3163C76.464 19.2846 165.744 10.7374 252.8 14.3123C365.376 18.9159 470.928 42.8685 583.68 46.4605C701.824 50.1983 819.744 31.9895 932.8 16.2326C1043.63 0.801514 1154.08 -5.0966 1267.84 5.01936C1325.68 10.1631 1379.6 20.3133 1434.96 30.1721C1583.18 56.5679 1780.8 90.2506 1920 33.0183V78H0Z" fill="#FF624A"/>
<path d="M0 78V38.3163C76.464 19.2846 165.744 10.7374 252.8 14.3123C365.376 18.9159 470.928 42.8685 583.68 46.4605C701.824 50.1983 819.744 31.9895 932.8 16.2326C1043.63 0.801514 1154.08 -5.0966 1267.84 5.01936C1325.68 10.1631 1379.6 20.3133 1434.96 30.1721C1583.18 56.5679 1780.8 90.2506 1920 33.0183V78H0Z" fill="#FF624A" fill-opacity="0.75"/>
<path d="M0 78V38.3163C76.464 19.2846 165.744 10.7374 252.8 14.3123C365.376 18.9159 470.928 42.8685 583.68 46.4605C701.824 50.1983 819.744 31.9895 932.8 16.2326C1043.63 0.801514 1154.08 -5.0966 1267.84 5.01936C1325.68 10.1631 1379.6 20.3133 1434.96 30.1721C1583.18 56.5679 1780.8 90.2506 1920 33.0183V78H0Z" fill="#FF624A" fill-opacity="0.5"/>
<path d="M0 78V38.3163C76.464 19.2846 165.744 10.7374 252.8 14.3123C365.376 18.9159 470.928 42.8685 583.68 46.4605C701.824 50.1983 819.744 31.9895 932.8 16.2326C1043.63 0.801514 1154.08 -5.0966 1267.84 5.01936C1325.68 10.1631 1379.6 20.3133 1434.96 30.1721C1583.18 56.5679 1780.8 90.2506 1920 33.0183V78H0Z" fill="#FF624A" fill-opacity="0.25"/>
<path d="M0 78V38.3163C76.464 19.2846 165.744 10.7374 252.8 14.3123C365.376 18.9159 470.928 42.8685 583.68 46.4605C701.824 50.1983 819.744 31.9895 932.8 16.2326C1043.63 0.801514 1154.08 -5.0966 1267.84 5.01936C1325.68 10.1631 1379.6 20.3133 1434.96 30.1721C1583.18 56.5679 1780.8 90.2506 1920 33.0183V78H0Z" fill="#FF624A" fill-opacity="0.1"/>
</g>
<path d="M0 78V73.1695C239.888 27.3779 502.544 16.8074 761.328 41.4749C830.128 48.03 896.096 58.7379 965.504 64.1776C1059.9 71.5822 1145.47 53.6757 1230.4 33.8044C1324.69 11.7451 1417.6 -3.71603 1521.92 0.779892C1660.37 6.7859 1797.86 39.9991 1920 73.547V78H0Z" fill="#FF624A"/>
<path d="M0 78V73.1695C239.888 27.3779 502.544 16.8074 761.328 41.4749C830.128 48.03 896.096 58.7379 965.504 64.1776C1059.9 71.5822 1145.47 53.6757 1230.4 33.8044C1324.69 11.7451 1417.6 -3.71603 1521.92 0.779892C1660.37 6.7859 1797.86 39.9991 1920 73.547V78H0Z" fill="#FF624A" fill-opacity="0.75"/>
<path d="M0 78V73.1695C239.888 27.3779 502.544 16.8074 761.328 41.4749C830.128 48.03 896.096 58.7379 965.504 64.1776C1059.9 71.5822 1145.47 53.6757 1230.4 33.8044C1324.69 11.7451 1417.6 -3.71603 1521.92 0.779892C1660.37 6.7859 1797.86 39.9991 1920 73.547V78H0Z" fill="#FF624A" fill-opacity="0.5"/>
<path d="M0 78V73.1695C239.888 27.3779 502.544 16.8074 761.328 41.4749C830.128 48.03 896.096 58.7379 965.504 64.1776C1059.9 71.5822 1145.47 53.6757 1230.4 33.8044C1324.69 11.7451 1417.6 -3.71603 1521.92 0.779892C1660.37 6.7859 1797.86 39.9991 1920 73.547V78H0Z" fill="#FF624A" fill-opacity="0.25"/>
<path d="M0 78V73.1695C239.888 27.3779 502.544 16.8074 761.328 41.4749C830.128 48.03 896.096 58.7379 965.504 64.1776C1059.9 71.5822 1145.47 53.6757 1230.4 33.8044C1324.69 11.7451 1417.6 -3.71603 1521.92 0.779892C1660.37 6.7859 1797.86 39.9991 1920 73.547V78H0Z" fill="#FF624A" fill-opacity="0.1"/>
</svg>
