<svg width="26" height="26" viewBox="0 0 26 26" fill="none" xmlns="http://www.w3.org/2000/svg">
<g id="Group 177">
<path id="Rectangle 324" d="M0 7C0 3.134 3.13401 0 7 0H18.6889C22.5549 0 25.6889 3.13401 25.6889 7V18.6889C25.6889 22.5549 22.5549 25.6889 18.6889 25.6889H7C3.134 25.6889 0 22.5549 0 18.6889V7Z" fill="#5758E3" fill-opacity="0.2"/>
<g id="Group 176">
<g id="Group 168">
<g id="Group 167">
<g id="Group 166">
<g id="Group 165">
<mask id="mask0_1084_533" style="mask-type:alpha" maskUnits="userSpaceOnUse" x="3" y="3" width="19" height="19">
<rect id="Bounding box" x="3.77777" y="3.77734" width="18.1333" height="18.1333" fill="#D9D9D9"/>
</mask>
<g mask="url(#mask0_1084_533)">
<g id="flag">
<path d="M9.06665 13.9775V18.8886C9.06665 19.0492 9.01232 19.1837 8.90364 19.2923C8.79497 19.4009 8.66035 19.4553 8.4998 19.4553C8.33912 19.4553 8.20456 19.4009 8.09614 19.2923C7.98759 19.1837 7.93332 19.0492 7.93332 18.8886V7.86051C7.93332 7.66696 7.9988 7.50477 8.12976 7.37394C8.2606 7.24297 8.42279 7.17749 8.61634 7.17749H13.4851C13.6465 7.17749 13.7904 7.22811 13.9171 7.32936C14.0437 7.4306 14.1235 7.56207 14.1565 7.72376L14.3525 8.6886H17.8281C18.0216 8.6886 18.1838 8.75377 18.3147 8.8841C18.4456 9.01443 18.5111 9.17593 18.5111 9.3686V14.8088C18.5111 15.0015 18.4456 15.1629 18.3147 15.2931C18.1838 15.4234 18.0216 15.4886 17.8281 15.4886H14.4704C14.3091 15.4886 14.1651 15.438 14.0384 15.3367C13.9118 15.2355 13.8321 15.104 13.7991 14.9423L13.603 13.9775H9.06665ZM14.8467 14.3553H17.3778V9.82193H13.9763C13.8151 9.82193 13.6711 9.77131 13.5445 9.67007C13.4178 9.56882 13.3379 9.43736 13.3049 9.27567L13.1089 8.31082H9.06665V12.8442H13.9793C14.1405 12.8442 14.2844 12.8948 14.4111 12.996C14.5378 13.0973 14.6176 13.2287 14.6506 13.3904L14.8467 14.3553Z" fill="#5758E3"/>
<path d="M9.06665 13.9775V18.8886C9.06665 19.0492 9.01232 19.1837 8.90364 19.2923C8.79497 19.4009 8.66035 19.4553 8.4998 19.4553C8.33912 19.4553 8.20456 19.4009 8.09614 19.2923C7.98759 19.1837 7.93332 19.0492 7.93332 18.8886V7.86051C7.93332 7.66696 7.9988 7.50477 8.12976 7.37394C8.2606 7.24297 8.42279 7.17749 8.61634 7.17749H13.4851C13.6465 7.17749 13.7904 7.22811 13.9171 7.32936C14.0437 7.4306 14.1235 7.56207 14.1565 7.72376L14.3525 8.6886H17.8281C18.0216 8.6886 18.1838 8.75377 18.3147 8.8841C18.4456 9.01443 18.5111 9.17593 18.5111 9.3686V14.8088C18.5111 15.0015 18.4456 15.1629 18.3147 15.2931C18.1838 15.4234 18.0216 15.4886 17.8281 15.4886H14.4704C14.3091 15.4886 14.1651 15.438 14.0384 15.3367C13.9118 15.2355 13.8321 15.104 13.7991 14.9423L13.603 13.9775H9.06665ZM14.8467 14.3553H17.3778V9.82193H13.9763C13.8151 9.82193 13.6711 9.77131 13.5445 9.67007C13.4178 9.56882 13.3379 9.43736 13.3049 9.27567L13.1089 8.31082H9.06665V12.8442H13.9793C14.1405 12.8442 14.2844 12.8948 14.4111 12.996C14.5378 13.0973 14.6176 13.2287 14.6506 13.3904L14.8467 14.3553Z" fill="#5758E3" fill-opacity="0.75"/>
<path d="M9.06665 13.9775V18.8886C9.06665 19.0492 9.01232 19.1837 8.90364 19.2923C8.79497 19.4009 8.66035 19.4553 8.4998 19.4553C8.33912 19.4553 8.20456 19.4009 8.09614 19.2923C7.98759 19.1837 7.93332 19.0492 7.93332 18.8886V7.86051C7.93332 7.66696 7.9988 7.50477 8.12976 7.37394C8.2606 7.24297 8.42279 7.17749 8.61634 7.17749H13.4851C13.6465 7.17749 13.7904 7.22811 13.9171 7.32936C14.0437 7.4306 14.1235 7.56207 14.1565 7.72376L14.3525 8.6886H17.8281C18.0216 8.6886 18.1838 8.75377 18.3147 8.8841C18.4456 9.01443 18.5111 9.17593 18.5111 9.3686V14.8088C18.5111 15.0015 18.4456 15.1629 18.3147 15.2931C18.1838 15.4234 18.0216 15.4886 17.8281 15.4886H14.4704C14.3091 15.4886 14.1651 15.438 14.0384 15.3367C13.9118 15.2355 13.8321 15.104 13.7991 14.9423L13.603 13.9775H9.06665ZM14.8467 14.3553H17.3778V9.82193H13.9763C13.8151 9.82193 13.6711 9.77131 13.5445 9.67007C13.4178 9.56882 13.3379 9.43736 13.3049 9.27567L13.1089 8.31082H9.06665V12.8442H13.9793C14.1405 12.8442 14.2844 12.8948 14.4111 12.996C14.5378 13.0973 14.6176 13.2287 14.6506 13.3904L14.8467 14.3553Z" fill="#5758E3" fill-opacity="0.5"/>
<path d="M9.06665 13.9775V18.8886C9.06665 19.0492 9.01232 19.1837 8.90364 19.2923C8.79497 19.4009 8.66035 19.4553 8.4998 19.4553C8.33912 19.4553 8.20456 19.4009 8.09614 19.2923C7.98759 19.1837 7.93332 19.0492 7.93332 18.8886V7.86051C7.93332 7.66696 7.9988 7.50477 8.12976 7.37394C8.2606 7.24297 8.42279 7.17749 8.61634 7.17749H13.4851C13.6465 7.17749 13.7904 7.22811 13.9171 7.32936C14.0437 7.4306 14.1235 7.56207 14.1565 7.72376L14.3525 8.6886H17.8281C18.0216 8.6886 18.1838 8.75377 18.3147 8.8841C18.4456 9.01443 18.5111 9.17593 18.5111 9.3686V14.8088C18.5111 15.0015 18.4456 15.1629 18.3147 15.2931C18.1838 15.4234 18.0216 15.4886 17.8281 15.4886H14.4704C14.3091 15.4886 14.1651 15.438 14.0384 15.3367C13.9118 15.2355 13.8321 15.104 13.7991 14.9423L13.603 13.9775H9.06665ZM14.8467 14.3553H17.3778V9.82193H13.9763C13.8151 9.82193 13.6711 9.77131 13.5445 9.67007C13.4178 9.56882 13.3379 9.43736 13.3049 9.27567L13.1089 8.31082H9.06665V12.8442H13.9793C14.1405 12.8442 14.2844 12.8948 14.4111 12.996C14.5378 13.0973 14.6176 13.2287 14.6506 13.3904L14.8467 14.3553Z" fill="#5758E3" fill-opacity="0.1"/>
</g>
</g>
</g>
</g>
</g>
</g>
</g>
</g>
</svg>
