<svg width="1920" height="204" viewBox="0 0 1920 204" fill="none" xmlns="http://www.w3.org/2000/svg">
<path opacity="0.25" d="M1919.99 -1.72412L1919.99 102.483C1815.88 152.459 1694.31 174.903 1575.77 165.515C1422.48 153.427 1278.76 90.5289 1125.23 81.0965C964.357 71.2813 803.791 119.096 649.849 160.473C498.935 200.994 348.544 216.482 193.643 189.918C114.885 176.411 41.4654 149.757 -33.9153 123.869C-235.744 54.555 -504.827 -33.8936 -694.368 116.395L-694.368 -1.72435L1919.99 -1.72412Z" fill="#F9FAFB"/>
<path d="M1919.99 -1.72412L1919.99 10.95C1593.35 131.095 1235.71 158.829 883.333 94.1082C789.652 76.9092 699.827 48.8146 605.318 34.5422C476.778 15.1145 360.265 62.0965 244.623 114.234C116.236 172.111 -10.2771 212.677 -152.324 200.881C-340.841 185.123 -528.052 97.9801 -694.368 9.95924L-694.368 -1.72435L1919.99 -1.72412Z" fill="url(#paint0_linear_692_434)"/>
<defs>
<linearGradient id="paint0_linear_692_434" x1="-1.36877e-05" y1="751.46" x2="1921" y2="751.46" gradientUnits="userSpaceOnUse">
<stop offset="0.245458" stop-color="#5758E3"/>
<stop offset="1" stop-color="#6FB8EF"/>
</linearGradient>
</defs>
</svg>
